#!OML:ASF F:\twosubjects\two\wednesday\Session 1\rory1.ASF
:FULLY-SPECIFIED
:DEGREES
449
root -1.43704 18.1585 -15.4452 -709.2 -71.4107 345.664
lowerback 13.2627 4.25635 4.41855
upperback 5.42158 5.92245 -1.44537
thorax -1.07708 2.95856 -4.78029
lowerneck -4.39141 14.8627 8.40039
upperneck -6.64774 19.2538 -31.1628
head 3.07078 9.45165 -9.73075
rclavicle 3.75703e-014 -2.62396e-014
rhumerus -48.2043 -19.2924 -42.9275
rradius 24.827
rwrist -0.084492
rhand -6.69424 29.6736
rfingers 7.12502
rthumb 19.1649 0.597887
lclavicle 3.75703e-014 -2.62396e-014
lhumerus -66.3452 -21.48 75.1111
lradius 86.7472
lwrist 73.1331
lhand -48.1425 57.6002
lfingers 7.12502
lthumb -20.8053 86.5047
rfemur -15.1158 17.4682 15.6718
rtibia 30.1086
rfoot -7.74352 -9.99334
rtoes 1.61351
lfemur -58.5859 11.5136 -21.2942
ltibia 84.7679
lfoot -8.74406 -8.36267
ltoes 0.390975
450
root -1.61463 18.014 -15.3633 -710.542 -70.4793 346.701
lowerback 13.5376 4.16377 4.03904
upperback 5.48591 5.75842 -1.44395
thorax -1.21596 2.86629 -4.56983
lowerneck -3.58563 14.9603 8.6995
upperneck -7.25614 19.2667 -31.5962
head 2.8525 9.5735 -9.99404
rclavicle 1.21259e-014 0
rhumerus -48.4918 -19.2973 -41.5542
rradius 24.5302
rwrist -0.191145
rhand -5.82528 29.4409
rfingers 7.12502
rthumb 20.0003 0.450172
lclavicle 1.21259e-014 0
lhumerus -67.4185 -21.8415 74.6506
lradius 87.1426
lwrist 73.5886
lhand -49.0954 58.1608
lfingers 7.12502
lthumb -21.7207 86.9622
rfemur -15.7611 17.6273 14.7734
rtibia 30.5048
rfoot -6.9105 -9.91446
rtoes 1.52741
lfemur -57.8986 11.303 -20.912
ltibia 83.4425
lfoot -8.93789 -7.75572
ltoes -2.59944
451
root -1.78771 17.8456 -15.2857 -711.242 -69.2968 347.108
lowerback 13.8176 4.08083 4.00156
upperback 5.5157 5.65089 -1.46786
thorax -1.3472 2.80847 -4.5837
lowerneck -3.68634 15.0987 8.98905
upperneck -6.86653 19.5729 -31.503
head 3.06173 9.68358 -9.93891
rclavicle 3.91606e-014 0
rhumerus -49.143 -19.7634 -39.8207
rradius 24.1924
rwrist 0.171523
rhand -5.35483 29.1375
rfingers 7.12502
rthumb 20.4525 0.194709
lclavicle 3.91606e-014 0
lhumerus -68.6793 -22.4664 74.0448
lradius 87.877
lwrist 73.7385
lhand -48.2016 57.3388
lfingers 7.12502
lthumb -20.8621 86.2371
rfemur -16.3502 17.6968 14.1087
rtibia 30.9135
rfoot -4.90724 -10.4016
rtoes -1.40481
lfemur -57.4367 10.8591 -20.2082
ltibia 82.2614
lfoot -9.06323 -7.0525
ltoes -4.36052
452
root -1.95987 17.6619 -15.2116 -712.234 -68.1053 347.792
lowerback 14.212 4.07021 3.85147
upperback 5.48319 5.62759 -1.54121
thorax -1.60236 2.78738 -4.61026
lowerneck -3.80467 15.1495 9.32637
upperneck -6.18782 19.8188 -31.2306
head 3.32425 9.74117 -9.83479
rclavicle 1.03368e-014 6.36111e-015
rhumerus -50.098 -20.2658 -37.8568
rradius 23.8031
rwrist 0.697807
rhand -5.07951 28.8545
rfingers 7.12502
rthumb 20.717 -0.0596852
lclavicle 1.03368e-014 6.36111e-015
lhumerus -69.7272 -23.5435 73.5045
lradius 88.2917
lwrist 73.7146
lhand -45.7326 56.262
lfingers 7.12502
lthumb -18.4885 85.4034
rfemur -16.8271 17.8455 13.2427
rtibia 31.5147
rfoot -3.45169 -11.1242
rtoes -0.313957
lfemur -56.9524 10.4479 -19.586
ltibia 81.2273
lfoot -9.51014 -6.13736
ltoes -4.7544
453
root -2.13403 17.4681 -15.137 -713.3 -66.8268 348.495
lowerback 14.663 3.97357 3.53418
upperback 5.52468 5.46508 -1.56219
thorax -1.84603 2.69452 -4.47002
lowerneck -3.92565 15.2315 9.76459
upperneck -5.83304 20.0313 -31.2034
head 3.53613 9.8055 -9.83772
rclavicle -6.79844e-014 2.3059e-014
rhumerus -50.729 -20.3732 -36.2418
rradius 23.543
rwrist 0.743161
rhand -4.94125 28.5637
rfingers 7.12502
rthumb 20.8499 -0.335975
lclavicle -6.79844e-014 2.3059e-014
lhumerus -70.6709 -24.4059 72.8909
lradius 88.7762
lwrist 74.0313
lhand -42.4792 54.893
lfingers 7.12502
lthumb -15.3568 84.3027
rfemur -17.0161 17.928 12.3227
rtibia 32.1769
rfoot -3.57752 -11.982
rtoes 1.35435
lfemur -56.5326 9.98399 -18.9836
ltibia 80.3876
lfoot -9.95779 -4.94432
ltoes -4.19695
454
root -2.30934 17.255 -15.0671 -713.789 -65.5252 348.44
lowerback 14.9233 3.72013 3.41814
upperback 5.83974 5.11035 -1.44608
thorax -1.70973 2.51884 -4.23811
lowerneck -3.8505 15.3956 9.77499
upperneck -6.30073 20.1569 -31.1681
head 3.411 9.91414 -9.81916
rclavicle 4.90998e-014 -1.98785e-014
rhumerus -50.7024 -20.6086 -34.7806
rradius 23.3318
rwrist 0.711956
rhand -4.9567 28.3077
rfingers 7.12502
rthumb 20.835 -0.593589
lclavicle 4.90998e-014 -1.98785e-014
lhumerus -71.7623 -24.6589 72.1872
lradius 89.6698
lwrist 74.5917
lhand -38.9106 52.9218
lfingers 7.12502
lthumb -11.9175 82.5626
rfemur -16.9428 17.6015 11.8558
rtibia 33.062
rfoot -4.51502 -12.1533
rtoes -4.98939
lfemur -56.2715 9.66099 -18.0371
ltibia 79.8816
lfoot -10.3876 -3.89365
ltoes -3.35544
455
root -2.48253 17.0283 -14.9975 -714.094 -64.2017 348.142
lowerback 14.9678 3.55263 3.39412
upperback 6.31728 4.87171 -1.26487
thorax -1.27059 2.40969 -3.98101
lowerneck -3.47455 15.4084 9.7281
upperneck -7.18054 19.9771 -31.2162
head 3.05997 9.93391 -9.90747
rclavicle -2.98177e-015 -9.54166e-015
rhumerus -50.8576 -21.6608 -32.6092
rradius 22.9779
rwrist 1.26369
rhand -4.60473 28.1152
rfingers 7.12502
rthumb 21.1732 -0.748543
lclavicle -2.98177e-015 -9.54166e-015
lhumerus -72.6704 -25.1402 71.5806
lradius 90.5242
lwrist 74.7939
lhand -34.1899 50.5908
lfingers 7.12502
lthumb -7.3629 80.4427
rfemur -16.9033 16.6753 11.5892
rtibia 34.7783
rfoot -6.42808 -11.5873
rtoes -15.9329
lfemur -56.1965 9.23889 -16.8722
ltibia 79.5643
lfoot -10.8883 -3.01444
ltoes -1.10452
456
root -2.65629 16.7573 -14.9295 -714.53 -62.6164 347.99
lowerback 15.4119 3.44042 3.31546
upperback 6.53335 4.71932 -1.06985
thorax -1.31572 2.32775 -3.73353
lowerneck -3.47966 15.3711 10.0043
upperneck -7.1669 19.9382 -31.0933
head 3.0708 9.91548 -9.91325
rclavicle 3.97569e-016 -3.02153e-014
rhumerus -51.6558 -22.5888 -30.0762
rradius 22.6251
rwrist 1.66595
rhand -4.09338 27.9421
rfingers 7.12502
rthumb 21.6643 -0.865845
lclavicle 3.97569e-016 -3.02153e-014
lhumerus -73.5701 -26.2753 70.9596
lradius 91.2364
lwrist 74.6247
lhand -27.5493 48.7104
lfingers 7.12502
lthumb -0.95058 78.688
rfemur -16.8198 15.3132 11.2808
rtibia 37.2683
rfoot -9.19503 -11.2037
rtoes -20.7015
lfemur -56.5425 8.56832 -15.7549
ltibia 79.4964
lfoot -11.3918 -1.78739
ltoes -0.18729
457
root -2.80152 16.5353 -14.8643 -715.128 -61.0062 347.84
lowerback 16.4787 3.29149 3.26001
upperback 6.48632 4.54853 -0.832459
thorax -1.96797 2.21897 -3.50447
lowerneck -2.98843 15.2975 10.0006
upperneck -7.26657 19.8232 -30.6828
head 2.87317 9.91318 -9.84249
rclavicle 3.97569e-015 -3.97569e-015
rhumerus -52.6409 -22.757 -27.7221
rradius 22.477
rwrist 1.64848
rhand -4.44962 27.6947
rfingers 7.12502
rthumb 21.3221 -1.15234
lclavicle 3.97569e-015 -3.97569e-015
lhumerus -74.8408 -27.5098 70.5521
lradius 92.0377
lwrist 74.5333
lhand -20.6297 47.3609
lfingers 7.12502
lthumb 5.73189 77.2634
rfemur -16.6375 12.2982 11.542
rtibia 40.6543
rfoot -11.1162 -11.824
rtoes -26.5759
lfemur -56.4941 8.10118 -14.808
ltibia 79.1257
lfoot -12.015 -0.092194
ltoes -3.28049
458
root -2.92601 16.3221 -14.8023 -715.571 -59.3711 347.306
lowerback 17.8299 3.14235 3.50922
upperback 6.50954 4.43345 -0.537767
thorax -2.66427 2.13828 -3.40468
lowerneck -1.49691 15.0583 9.99909
upperneck -8.56877 19.23 -30.8566
head 2.149 9.84742 -10.1585
rclavicle 9.14409e-015 1.19271e-014
rhumerus -53.8421 -23.1662 -25.122
rradius 22.4394
rwrist 1.81003
rhand -5.30405 27.5213
rfingers 7.12502
rthumb 20.5013 -1.41629
lclavicle 9.14409e-015 1.19271e-014
lhumerus -75.7172 -28.6368 70.2334
lradius 92.7185
lwrist 74.5786
lhand -14.6792 46.1762
lfingers 7.12502
lthumb 11.4742 75.8422
rfemur -16.8049 9.52608 12.0155
rtibia 44.2927
rfoot -14.0808 -10.0094
rtoes -23.5797
lfemur -56.3423 7.57767 -13.6531
ltibia 78.6754
lfoot -12.4608 1.60894
ltoes -5.92435
459
root -3.04258 16.1169 -14.7349 -716.13 -57.7515 346.747
lowerback 19.1763 3.086 3.98817
upperback 6.75923 4.47475 -0.295339
thorax -3.07281 2.14354 -3.50361
lowerneck -0.188503 14.8001 10.5427
upperneck -9.87862 18.6289 -31.926
head 1.63619 9.76253 -10.8451
rclavicle -1.53064e-014 3.18055e-015
rhumerus -55.3917 -23.7313 -22.6741
rradius 22.6486
rwrist 1.50757
rhand -6.45776 27.1013
rfingers 7.12502
rthumb 19.3923 -1.95171
lclavicle -1.53064e-014 3.18055e-015
lhumerus -75.6668 -29.998 69.6447
lradius 92.9556
lwrist 74.5194
lhand -9.23646 44.4429
lfingers 7.12502
lthumb 16.7188 73.743
rfemur -16.8707 6.54834 12.4546
rtibia 47.7997
rfoot -15.9375 -9.91301
rtoes -23.4973
lfemur -56.0909 6.7378 -12.4058
ltibia 78.1119
lfoot -12.9002 3.39399
ltoes -7.59749
460
root -3.1609 15.9561 -14.6478 -716.294 -56.4599 345.703
lowerback 20.2501 3.14009 4.69905
upperback 7.16127 4.70469 0.101934
thorax -3.14444 2.25193 -3.58145
lowerneck 0.73126 14.565 11.1924
upperneck -10.9168 18.11 -33.4496
head 1.35395 9.68056 -11.6692
rclavicle -4.9895e-014 5.32743e-014
rhumerus -56.8472 -23.8445 -20.678
rradius 23.1264
rwrist 0.44276
rhand -8.20366 26.3436
rfingers 7.12502
rthumb 17.7129 -2.86963
lclavicle -4.9895e-014 5.32743e-014
lhumerus -75.101 -31.0586 69.0299
lradius 92.841
lwrist 74.1249
lhand -4.74005 42.4725
lfingers 7.12502
lthumb 21.0432 71.3508
rfemur -16.4238 3.79195 12.9803
rtibia 50.5469
rfoot -17.6357 -9.7739
rtoes -24.1762
lfemur -55.5611 6.19238 -10.9706
ltibia 77.3912
lfoot -13.5758 5.23295
ltoes -10.2087
461
root -3.28229 15.8194 -14.5412 -715.231 -55.3155 343.588
lowerback 20.9861 3.14865 5.7292
upperback 7.43725 4.95973 0.787524
thorax -3.16482 2.3744 -3.51925
lowerneck 1.21398 14.4694 11.4758
upperneck -11.7488 17.7984 -34.5842
head 1.1563 9.65718 -12.2432
rclavicle 6.40087e-014 -3.26007e-014
rhumerus -58.098 -24.3343 -18.2926
rradius 23.3805
rwrist 0.199348
rhand -10.7208 24.8522
rfingers 7.12502
rthumb 15.2894 -4.56264
lclavicle 6.40087e-014 -3.26007e-014
lhumerus -74.2582 -31.3537 68.536
lradius 92.3965
lwrist 73.5031
lhand -2.75713 40.3805
lfingers 7.12502
lthumb 22.947 69.0348
rfemur -15.8691 1.84085 14.081
rtibia 52.5713
rfoot -19.4203 -9.14819
rtoes -22.9932
lfemur -55.3083 6.08927 -9.01631
ltibia 76.6766
lfoot -14.2514 6.84291
ltoes -10.7231
